<svg width="289" height="67" viewBox="0 0 289 67" fill="none" xmlns="http://www.w3.org/2000/svg">
<path fill-rule="evenodd" clip-rule="evenodd" d="M124.919 51.1963C126.343 51.1963 127.523 52.5181 128.458 55.1623V57.5419C127.197 60.8369 124.817 63.7254 121.319 66.2068L116.193 67C114.647 66.9998 113.325 65.6974 112.227 63.0943C112.227 60.1654 116.316 56.1996 124.492 51.1963H124.919ZM122.966 55.1623C119.712 56.9927 117.597 58.8231 116.621 60.6534V61.8131C116.743 62.3825 117.394 62.932 118.573 63.4607C120.729 63.4605 122.295 61.7313 123.271 58.2738V57.9084L122.966 55.1623Z" fill="white"/>
<path fill-rule="evenodd" clip-rule="evenodd" d="M266.281 51.1953C267.704 51.1956 268.884 52.5184 269.82 55.1623V57.5419C268.559 60.8368 266.178 63.7254 262.68 66.2068L257.554 67C256.009 66.9998 254.687 65.6974 253.588 63.0943C253.589 60.1653 257.677 56.1989 265.854 51.1953H266.281ZM264.328 55.1623C261.074 56.9927 258.958 58.823 257.982 60.6534V61.8131C258.104 62.3825 258.756 62.932 259.935 63.4607C262.091 63.4603 263.657 61.7311 264.633 58.2738V57.9074L264.328 55.1623Z" fill="white"/>
<path d="M81.1191 6.40683C82.5833 6.89489 83.3157 7.52575 83.316 8.29845L83.072 10.1298L83.7437 16.1099L83.072 21.4183L85.5741 42.2874H85.3301L85.5741 42.5314V46.8638L86.062 48.633H85.5741L86.062 49.0597V51.623L86.3673 56.5047C86.3671 58.9452 85.2686 60.1655 83.072 60.1655L81.8521 60.5932H81.1191C80.1429 60.5924 79.3095 56.4829 78.618 48.2665L78.862 46.8638L78.618 44.9722L78.862 44.5445L78.618 41.9209V29.9607L78.1291 28.4968L78.862 27.3372L78.618 26.9095L78.862 25.4455L78.618 23.6152L78.862 23.1874V22.8822L78.618 22.4555V22.0288L79.2887 20.6251L78.862 20.1371V19.8319C78.984 18.0827 79.2484 17.2074 79.6552 17.2074L79.2887 16.9634V16.4754C79.2887 9.76381 79.8989 6.40732 81.1191 6.40683Z" fill="white"/>
<path d="M222.481 6.40683C223.945 6.89495 224.677 7.52565 224.678 8.29845L224.434 10.1288L225.105 16.1089L224.434 21.4173L226.936 42.2864H226.692L226.936 42.5304V46.8629L227.424 48.633H226.936L227.424 49.0597V51.623L227.729 56.5037C227.729 58.9443 226.63 60.1653 224.434 60.1655L223.214 60.5922H222.481C221.504 60.5915 220.671 56.483 219.98 48.2665L220.224 46.8629L219.98 44.9712L220.224 44.5445L219.98 41.92V29.9607L219.491 28.4959L220.224 27.3372L219.98 26.9095L220.224 25.4455L219.98 23.6142L220.224 23.1874V22.8822L219.98 22.4555V22.0278L220.65 20.6241L220.224 20.1362V19.8309C220.346 18.0819 220.61 17.2074 221.017 17.2074L220.65 16.9634V16.4754C220.65 9.76364 221.26 6.40725 222.481 6.40683Z" fill="white"/>
<path d="M30.4487 4.88167C33.1742 6.67158 34.4354 9.39748 34.232 13.0586L35.9408 24.7136H35.5131L36.7943 32.0361V33.1345L36.8555 37.5272L37.3435 38.9921H37.0995L37.0393 39.9681L37.1608 41.5545L36.8555 41.433L37.1608 41.8597V42.1649L36.8555 42.5314L36.7943 42.8366L37.5875 47.2906H37.2832L37.6487 50.1581C37.4859 52.8022 35.8792 54.0233 32.8283 53.8199L31.5471 54.7958H31.2419C30.347 54.7551 29.7164 51.4602 29.3503 44.911L29.777 44.9722L29.4115 43.8126L29.8995 43.5073V43.2021L29.3503 40.945V40.2121L29.777 39.9068L29.4115 39.4801V39.1749L29.8383 38.7481V38.3817L29.3503 35.8796L29.777 34.7812L29.5943 32.6456L30.0822 30.51L29.5943 26.1172L30.0822 25.812L28.9236 5.55336L30.0822 4.88167H30.4487Z" fill="white"/>
<path d="M186.684 34.7199L187.049 34.4759L189.185 34.7199L189.49 34.9639L190.406 34.8424C191.218 35.3302 191.605 35.7165 191.564 36.0011L191.504 36.6116C190.447 39.2148 188.9 40.374 186.866 40.0896C186.866 40.3742 185.38 40.4154 182.412 40.2121L182.168 39.8456H181.862C180.845 40.0896 179.462 40.0896 177.714 39.8456L176.493 39.6628L176.005 40.944C175.883 41.6356 176.208 42.9986 176.981 45.0325V46.2524L177.53 48.0838C177.815 50.1582 177.876 51.5008 177.714 52.111L176.798 53.7586L173.992 54.1854C172.975 53.9006 172.405 53.3307 172.283 52.4765L171.795 50.8901C171.754 49.4664 171.652 47.7575 171.489 45.7644L171.855 44.9712C171.53 44.8884 171.021 43.3224 170.33 40.2733C161.421 41.0869 155.38 42.0426 152.207 43.1409C150.702 42.4494 149.848 41.7168 149.644 40.944L149.706 40.7613C149.95 38.89 151.963 37.954 155.746 37.954C160.75 36.815 166.506 35.778 173.015 34.8424L173.198 35.2691H173.503L178.69 34.6587V34.9037L186.684 34.4147V34.7199Z" fill="white"/>
<path d="M57.0772 15.8649C63.2606 15.8649 66.3526 17.5333 66.3526 20.8691L67.207 31.1204C66.19 32.9916 63.688 35.188 59.7018 37.71L58.6034 39.6628L58.9689 40.0905V40.3958L58.6034 41.9822C58.6036 44.0564 59.905 45.0937 62.5081 45.0937L67.5725 44.7273C68.5895 45.0934 69.0987 45.5007 69.0987 45.9482C68.6105 48.7549 67.2064 50.1581 64.8877 50.1581C64.2365 50.6869 61.6329 51.0738 57.0772 51.3178C53.9452 50.2195 52.3794 48.6732 52.3793 46.6801L52.7448 45.4602L52.3793 42.4089C52.3793 38.5037 54.9828 34.9847 60.1898 31.8524C61.1659 30.7948 61.6536 29.7773 61.6537 28.8011V27.1544C61.6537 22.2729 59.9862 19.8319 56.6505 19.8319C55.2268 19.8319 54.1889 19.1601 53.538 17.8178V17.4523L55.0029 15.8649H57.0772Z" fill="white"/>
<path d="M198.439 15.8649C204.622 15.865 207.714 17.5328 207.714 20.8681L208.569 31.1204C207.552 32.9915 205.049 35.1881 201.063 37.71L199.965 39.6628L200.33 40.0896V40.3948L199.965 41.9812C199.965 44.0557 201.266 45.0937 203.87 45.0937L208.934 44.7273C209.951 45.0933 210.46 45.5007 210.46 45.9482C209.972 48.7546 208.568 50.158 206.249 50.1581C205.598 50.6869 202.994 51.0738 198.439 51.3178C195.307 50.2195 193.741 48.6733 193.741 46.6801L194.106 45.4592L193.741 42.4089C193.741 38.5036 196.344 34.9847 201.551 31.8524C202.527 30.7948 203.015 29.7773 203.015 28.8011V27.1534C203.015 22.2723 201.347 19.8312 198.012 19.8309C196.588 19.8309 195.55 19.1601 194.9 17.8178V17.4513L196.364 15.8649H198.439Z" fill="white"/>
<path d="M112.655 17.4523L113.569 18.9775L112.959 23.0659L113.569 23.6152L113.204 23.9204L113.875 27.6424C113.874 30.1643 110.477 31.7106 103.684 32.2801L96.6059 35.6968C95.6703 35.6969 94.9174 37.5476 94.3478 41.2492C96.3818 42.0628 97.9484 42.4701 99.0468 42.4701L100.877 42.2262L101.182 42.4701H101.549L103.318 42.2262H105.271L106.491 43.4461V44.0565C106.491 44.5038 106.166 44.7282 105.515 44.7282L105.82 46.1922L103.99 47.7785H102.098L91.907 48.9995C90.036 48.9992 88.897 47.1475 88.4902 43.4461L89.1619 41.9209L88.8567 41.5545L89.4059 38.7481L89.1619 37.8937L90.9923 33.8052C94.2462 31.1207 96.524 29.7783 97.8259 29.778V30.1445L106.125 27.0932V27.3372C108.24 26.4423 109.298 25.4248 109.298 24.2859V22.1503C109.298 20.4419 107.61 19.3843 104.234 18.9775H103.318L101.549 19.3439L100.572 18.9775L97.1551 19.8931C95.9757 19.4051 95.3863 18.9976 95.386 18.6722C95.6302 17.0045 99.4129 16.1702 106.735 16.1702L112.655 17.4523Z" fill="white"/>
<path d="M254.016 17.4513L254.931 18.9775L254.32 23.065L254.931 23.6142L254.564 23.9194L255.236 27.6414C255.236 30.1634 251.839 31.7095 245.046 32.2791L237.967 35.6968C237.032 35.6968 236.279 37.5474 235.709 41.2492C237.743 42.0627 239.31 42.4701 240.408 42.4701L242.239 42.2252L242.544 42.4701H242.91L244.68 42.2252H246.632L247.852 43.4461V44.0565C247.852 44.5036 247.527 44.7271 246.876 44.7273L247.182 46.1922L245.351 47.7785H243.46L233.269 48.9985C231.398 48.9982 230.259 47.1475 229.852 43.4461L230.523 41.9209L230.218 41.5545L230.767 38.7472L230.523 37.8937L232.354 33.8052C235.608 31.1208 237.886 29.7783 239.187 29.778V30.1435L247.487 27.0932V27.3372C249.602 26.4423 250.66 25.4248 250.66 24.2859V22.1503C250.66 20.4418 248.971 19.3843 245.595 18.9775H244.68L242.91 19.343L241.933 18.9775L238.517 19.8922C237.337 19.4042 236.747 18.9976 236.747 18.6722C236.991 17.0044 240.774 16.1702 248.096 16.1702L254.016 17.4513Z" fill="white"/>
<path d="M128.032 2.3796V2.74606L128.885 12.6309L139.93 11.411L140.357 11.8377H140.724L142.737 11.411C145.381 12.2246 146.703 12.8962 146.703 13.4251L146.276 13.7906L146.703 14.2183V15.377L144.262 17.3298C134.785 16.3536 130.046 15.4585 130.045 14.645L129.618 13.4251C129.13 13.4251 128.885 13.8314 128.885 14.645L129.19 16.1702L128.885 17.3298L129.19 18.611H128.885L129.19 19.7707L131.204 32.8293L130.838 33.988L131.204 34.4157H131.631L131.204 36.7953L131.631 41.9209C130.329 44.8088 128.764 46.2532 126.933 46.2534C125.916 46.2534 125.102 43.487 124.492 37.9549L124.919 35.1476L124.492 32.0361H124.919L124.492 31.6084V31.1816L124.919 29.6555L124.492 23.6764V19.7707L124.919 15.0717L124.492 10.2513V5.49212C124.492 1.83093 125.306 0 126.933 0H127.237L128.032 2.3796Z" fill="white"/>
<path d="M269.393 2.3796V2.74606L270.247 12.6309L281.291 11.411L281.719 11.8377H282.084L284.098 11.411C286.742 12.2244 288.064 12.8953 288.064 13.4241L287.638 13.7906L288.064 14.2173V15.377L285.624 17.3298C276.147 16.3537 271.408 15.4585 271.406 14.645L270.98 13.4241C270.491 13.4241 270.247 13.8314 270.247 14.645L270.552 16.1702L270.247 17.3298L270.552 18.611H270.247L270.552 19.7707L272.566 32.8283L272.199 33.988L272.566 34.4147H272.993L272.566 36.7953L272.993 41.9209C271.691 44.8085 270.125 46.2529 268.295 46.2534C267.278 46.2534 266.464 43.4863 265.854 37.954L266.281 35.1476L265.854 32.0351H266.281L265.854 31.6084V31.1807L266.281 29.6555L265.854 23.6754V19.7707L266.281 15.0717L265.854 10.2513V5.49212C265.854 1.83093 266.668 0 268.295 0H268.599L269.393 2.3796Z" fill="white"/>
<path fill-rule="evenodd" clip-rule="evenodd" d="M14.4613 23.7979C16.0885 23.7979 17.4309 25.3235 18.4885 28.3743V31.0592C17.0647 34.7609 14.3799 38.0568 10.4341 40.945L4.57644 41.8597C2.86796 41.8597 1.3424 40.3545 0 37.3445C0 34.0494 4.67826 29.5337 14.0346 23.7979H14.4613ZM12.2042 28.3743C8.54305 30.449 6.12164 32.5238 4.94194 34.5984V36.0021C5.10479 36.6122 5.87833 37.2223 7.26127 37.8325C9.86461 37.8324 11.6546 35.8798 12.6309 31.9748V31.4869L12.2042 28.3743Z" fill="white"/>
<path d="M178.324 19.8309C179.91 20.7667 181.374 22.639 182.717 25.4455C182.513 27.1532 182.167 28.0073 181.68 28.0079H179.788L171.977 20.1362H171.184C171.184 20.8685 169.719 23.1265 166.791 26.9095C165.936 29.8787 164.939 31.364 163.801 31.3644C162.499 31.3641 161.624 29.6348 161.177 26.1775C165.489 20.3198 168.336 16.0889 169.719 13.4853L171.977 12.7534L178.324 19.8309Z" fill="white"/>
<path d="M45.8257 25.0791C45.8671 25.323 47.0469 25.425 49.3649 25.3843L49.7917 25.6283C50.0763 26.7266 49.8326 28.0495 49.0597 29.5952L48.2053 29.778L47.9001 29.534L47.6561 29.8995L46.9241 30.1445C41.189 30.1038 38.1782 29.9 37.8927 29.534C37.5268 29.5744 37.2622 29.2894 37.0995 28.6796L36.6728 27.2759L37.0393 27.0319L41.7984 26.4827L42.5916 26.2387L43.6901 25.6283L44.4833 25.6895L45.8257 25.0791Z" fill="white"/>
</svg>
