<svg width="30" height="30" viewBox="0 0 30 30" fill="none" xmlns="http://www.w3.org/2000/svg">
<path d="M6.25 21.6671V8.33373C6.25 7.23427 6.25 6.68393 6.48137 6.35863C6.6833 6.07471 6.99455 5.8883 7.34009 5.84374C7.73585 5.79269 8.22126 6.05157 9.19067 6.56859L21.6907 13.2353L21.6952 13.2373C22.7665 13.8086 23.3024 14.0945 23.4782 14.4754C23.6316 14.8077 23.6316 15.1913 23.4782 15.5237C23.3022 15.9052 22.765 16.1921 21.6907 16.7651L9.19067 23.4318C8.22056 23.9492 7.736 24.2071 7.34009 24.156C6.99455 24.1114 6.6833 23.9251 6.48137 23.6411C6.25 23.3158 6.25 22.7665 6.25 21.6671Z" stroke="#2C2C2C" stroke-width="2.4" stroke-linecap="round" stroke-linejoin="round"/>
</svg>
